<?xml version="1.0" encoding="utf-8"?>
<svg xmlns="http://www.w3.org/2000/svg" id="Layer_1" data-name="Layer 1" viewBox="0 0 24 24" width="512" height="512">
  <path d="M 22.436 3 L 17.679 3 C 17.06 1.254 15.392 0 13.436 0 L 10.436 0 C 8.48 0 6.812 1.254 6.193 3 L 1.436 3 C 0.607 3 -0.064 3.671 -0.064 4.5 C -0.064 5.329 0.608 6 1.436 6 L 2.056 6 L 3.136 18.957 C 3.372 21.785 5.78 24 8.617 24 L 15.256 24 C 18.094 24 20.501 21.785 20.737 18.957 L 21.817 6 L 22.437 6 C 23.265 6 23.937 5.329 23.937 4.5 C 23.937 3.671 23.265 3 22.437 3 L 22.436 3 Z M 17.747 18.708 C 17.641 19.994 16.546 21 15.256 21 L 8.617 21 C 7.327 21 6.232 19.993 6.126 18.708 L 5.067 6 L 18.806 6 L 17.747 18.708 Z" style=""/>
</svg>